<svg id="lock" xmlns="http://www.w3.org/2000/svg" width="9.8" height="11.76" viewBox="0 0 9.8 11.76">
  <path id="Path_9021" data-name="Path 9021" d="M10.33,4.128v-.7a3.43,3.43,0,1,0-6.86,0v.7A2.45,2.45,0,0,0,2,6.37V9.31a2.453,2.453,0,0,0,2.45,2.45h4.9A2.453,2.453,0,0,0,11.8,9.31V6.37A2.45,2.45,0,0,0,10.33,4.128Zm-5.88-.7a2.45,2.45,0,0,1,4.9,0v.49H4.45Zm6.37,5.88a1.47,1.47,0,0,1-1.47,1.47H4.45A1.47,1.47,0,0,1,2.98,9.31V6.37A1.47,1.47,0,0,1,4.45,4.9h4.9a1.47,1.47,0,0,1,1.47,1.47Z" transform="translate(-2)" fill="#6e798a"/>
  <path id="Path_9022" data-name="Path 9022" d="M11.49,14a.49.49,0,0,0-.49.49v.98a.49.49,0,0,0,.98,0v-.98A.49.49,0,0,0,11.49,14Z" transform="translate(-6.59 -7.14)" fill="#6e798a"/>
</svg>
