<svg xmlns="http://www.w3.org/2000/svg" xmlns:xlink="http://www.w3.org/1999/xlink" width="16.551" height="16.629" viewBox="0 0 16.551 16.629">
  <defs>
    <clipPath id="clip-path">
      <rect id="Rectangle_3124" data-name="Rectangle 3124" width="16.551" height="16.629" fill="#1662d4"/>
    </clipPath>
  </defs>
  <g id="Group_17874" data-name="Group 17874" clip-path="url(#clip-path)">
    <path id="Path_9024" data-name="Path 9024" d="M4.468,15.59a.61.61,0,0,1-.686.479H.666A.6.6,0,0,1,0,15.407q0-4.591,0-9.182a.593.593,0,0,1,.66-.667c1.026,0,2.053,0,3.079,0a.692.692,0,0,1,.676.326c.048-.057.088-.1.123-.147A39.337,39.337,0,0,0,7.71.881,1.576,1.576,0,0,1,9.2,0a.979.979,0,0,1,.363.063A3.1,3.1,0,0,1,11.23,1.49a2.06,2.06,0,0,1,.146,1.41q-.338,1.509-.671,3.019c-.012.053-.015.107-.026.188h.231c.977,0,1.954-.006,2.931,0a2.686,2.686,0,0,1,2.71,2.8,2.455,2.455,0,0,1-.4,1.313c-1.116,1.684-2.223,3.375-3.367,5.041a3.066,3.066,0,0,1-2.592,1.357c-1.119.02-2.238.014-3.357,0a3.214,3.214,0,0,1-2.213-.9L4.5,15.6s-.011,0-.029-.011m.014-5.007c0,.649,0,1.3,0,1.948a3.636,3.636,0,0,0,.034,1.1,3.738,3.738,0,0,0,.64.9,2.114,2.114,0,0,0,1.8.9c1.014,0,2.029-.008,3.043,0a2.165,2.165,0,0,0,1.947-1.04q1.548-2.344,3.116-4.675a1.521,1.521,0,0,0-1.3-2.429c-1.237.006-2.474,0-3.711,0-.559,0-.8-.309-.682-.85q.427-1.917.847-3.835a.92.92,0,0,0-.338-.96c-.124-.1-.255-.2-.383-.293-.367-.275-.546-.231-.788.159C7.93,2.776,7.157,4.042,6.35,5.286A11.1,11.1,0,0,1,4.6,7.42a.351.351,0,0,0-.124.288c0,.959,0,1.917,0,2.876m-1.2-3.825H1.2v8.117H3.281Z" transform="translate(0 0)" fill="#1662d4"/>
  </g>
</svg>
