<svg xmlns="http://www.w3.org/2000/svg" width="14.838" height="17.805" viewBox="0 0 14.838 17.805">
  <g id="trash_1_" data-name="trash (1)" transform="translate(0.001 0)" opacity="0.7">
    <path id="Path_9011" data-name="Path 9011" d="M16.1,2.968H13.8A3.716,3.716,0,0,0,10.161,0H8.677A3.716,3.716,0,0,0,5.042,2.968h-2.3a.742.742,0,1,0,0,1.484h.742V14.1a3.714,3.714,0,0,0,3.709,3.709h4.451A3.714,3.714,0,0,0,15.354,14.1V4.451H16.1a.742.742,0,1,0,0-1.484ZM8.677,1.484h1.484a2.23,2.23,0,0,1,2.1,1.484H6.578a2.23,2.23,0,0,1,2.1-1.484ZM13.87,14.1a2.226,2.226,0,0,1-2.226,2.226H7.193A2.226,2.226,0,0,1,4.968,14.1V4.451h8.9Z" transform="translate(-2.001 0)" fill="#737982"/>
    <path id="Path_9012" data-name="Path 9012" d="M9.742,15.935a.742.742,0,0,0,.742-.742V10.742a.742.742,0,0,0-1.484,0v4.451A.742.742,0,0,0,9.742,15.935Z" transform="translate(-3.808 -2.581)" fill="#737982"/>
    <path id="Path_9013" data-name="Path 9013" d="M13.742,15.935a.742.742,0,0,0,.742-.742V10.742a.742.742,0,1,0-1.484,0v4.451A.742.742,0,0,0,13.742,15.935Z" transform="translate(-4.84 -2.581)" fill="#737982"/>
  </g>
</svg>
