<svg xmlns="http://www.w3.org/2000/svg" width="15.456" height="15.263" viewBox="0 0 15.456 15.263">
  <g id="Group_17876" data-name="Group 17876" transform="translate(-846 -1479.17)">
    <path id="Shape" d="M3.864,10.743v2.391l3.912-2.312.409-.007a31.6,31.6,0,0,0,4.183-.357,1.468,1.468,0,0,0,1.275-1.192,18.322,18.322,0,0,0,.268-3.084A18.323,18.323,0,0,0,13.643,3.1a1.468,1.468,0,0,0-1.275-1.192,31.311,31.311,0,0,0-4.64-.361,31.31,31.31,0,0,0-4.64.361A1.468,1.468,0,0,0,1.813,3.1a18.317,18.317,0,0,0-.268,3.084,18.316,18.316,0,0,0,.268,3.084,1.437,1.437,0,0,0,.993,1.125ZM.29,2.836A3.013,3.013,0,0,1,2.855.378,32.855,32.855,0,0,1,7.728,0,32.854,32.854,0,0,1,12.6.378a3.012,3.012,0,0,1,2.565,2.458,19.857,19.857,0,0,1,.29,3.347,19.857,19.857,0,0,1-.29,3.347A3.013,3.013,0,0,1,12.6,11.987a33.153,33.153,0,0,1-4.39.374L3.484,15.154a.773.773,0,0,1-1.166-.665v-2.63A2.982,2.982,0,0,1,.29,9.529,19.861,19.861,0,0,1,0,6.183,19.862,19.862,0,0,1,.29,2.836Z" transform="translate(846 1479.17)" fill="#1662d4" fill-rule="evenodd"/>
    <path id="Shape-2" data-name="Shape" d="M.773,0a.773.773,0,0,0,0,1.546H8.5A.773.773,0,1,0,8.5,0Zm0,3.091a.773.773,0,1,0,0,1.546H3.864a.773.773,0,1,0,0-1.546Z" transform="translate(847.091 1483.034)" fill="#1662d4" fill-rule="evenodd"/>
  </g>
</svg>
