<svg xmlns="http://www.w3.org/2000/svg" width="17.893" height="17.892" viewBox="0 0 17.893 17.892">
  <g id="Group_11801" data-name="Group 11801" transform="translate(0.102 0.101)">
    <g id="Group_11800" data-name="Group 11800">
      <g id="Group_14728" data-name="Group 14728">
        <path id="Path_13" data-name="Path 13" d="M16.827,17.691a4.013,4.013,0,0,1-.524-.377q-1.707-1.689-3.4-3.393a1.374,1.374,0,0,1-.114-.148,7.789,7.789,0,1,1,.982-.982,1.783,1.783,0,0,1,.16.127q1.693,1.69,3.381,3.386a4.009,4.009,0,0,1,.377.523v.311a.927.927,0,0,1-.553.553ZM1.442,7.765A6.348,6.348,0,1,0,7.819,1.442,6.355,6.355,0,0,0,1.442,7.765" transform="translate(0 0)" fill="#6e798a" stroke="#6e798a" stroke-width="0.2" opacity="0.7"/>
      </g>
    </g>
  </g>
</svg>
